<?xml version="1.0" encoding="UTF-8" standalone="no"?>
<svg
   version="1.1"
   id="svg2"
   width="2666.6667"
   height="2018.6667"
   viewBox="0 0 2666.6667 2018.6667"
   sodipodi:docname="NEW LOGO GC NOIR.ai"
   xmlns:inkscape="http://www.inkscape.org/namespaces/inkscape"
   xmlns:sodipodi="http://sodipodi.sourceforge.net/DTD/sodipodi-0.dtd"
   xmlns="http://www.w3.org/2000/svg"
   xmlns:svg="http://www.w3.org/2000/svg">
  <defs
     id="defs6">
    <clipPath
       clipPathUnits="userSpaceOnUse"
       id="clipPath16">
      <path
         d="M 0,1514 H 2000 V 0 H 0 Z"
         id="path14" />
    </clipPath>
  </defs>
  <sodipodi:namedview
     id="namedview4"
     pagecolor="#ffffff"
     bordercolor="#000000"
     borderopacity="0.25"
     inkscape:showpageshadow="2"
     inkscape:pageopacity="0.0"
     inkscape:pagecheckerboard="0"
     inkscape:deskcolor="#d1d1d1" />
  <g
     id="g8"
     inkscape:groupmode="layer"
     inkscape:label="NEW LOGO GC NOIR"
     transform="matrix(1.3333333,0,0,-1.3333333,0,2018.6667)">
    <g
       id="g10">
      <g
         id="g12"
         clip-path="url(#clipPath16)">
        <g
           id="g18"
           transform="translate(197.0803,164.6255)">
          <path
             d="m 0,0 h 45.913 v -66.295 c -19.037,-12.99 -45.241,-19.933 -68.31,-19.933 -50.617,0 -87.572,33.819 -87.572,81.972 0,48.153 36.955,81.973 88.692,81.973 30.907,0 55.768,-10.75 71.67,-30.236 L 16.573,17.693 C 6.719,29.116 -4.704,34.939 -18.59,34.939 c -23.292,0 -38.074,-15.006 -38.074,-39.195 0,-23.516 14.782,-39.194 37.402,-39.194 6.495,0 12.767,1.12 19.262,3.807 z"
             style="fill:#231f20;fill-opacity:1;fill-rule:nonzero;stroke:none"
             id="path20" />
        </g>
        <g
           id="g22"
           transform="translate(337.7322,197.9967)">
          <path
             d="M 0,0 H -19.262 V -36.73 H 0 c 14.558,0 21.501,6.942 21.501,18.365 C 21.501,-6.943 14.558,0 0,0 m -4.928,-76.597 h -14.334 v -39.419 H -72.118 V 40.763 H 3.359 c 43.674,0 71.446,-22.845 71.446,-59.128 0,-22.621 -10.75,-39.643 -29.564,-49.274 l 32.924,-48.377 h -56.44 z"
             style="fill:#231f20;fill-opacity:1;fill-rule:nonzero;stroke:none"
             id="path24" />
        </g>
        <g
           id="g26"
           transform="translate(549.8289,160.3697)">
          <path
             d="m 0,0 c 0,24.413 -15.678,39.194 -35.163,39.194 -19.485,0 -35.163,-14.781 -35.163,-39.194 0,-24.412 15.678,-39.194 35.163,-39.194 C -15.678,-39.194 0,-24.412 0,0 m -123.63,0 c 0,47.481 37.402,81.973 88.467,81.973 51.065,0 88.468,-34.492 88.468,-81.973 0,-47.481 -37.403,-81.972 -88.468,-81.972 -51.065,0 -88.467,34.491 -88.467,81.972"
             style="fill:#231f20;fill-opacity:1;fill-rule:nonzero;stroke:none"
             id="path28" />
        </g>
        <g
           id="g30"
           transform="translate(621.0496,152.5309)">
          <path
             d="M 0,0 V 86.229 H 52.856 V 1.568 c 0,-23.964 9.184,-32.923 23.965,-32.923 14.782,0 23.965,8.959 23.965,32.923 v 84.661 h 51.961 V 0 c 0,-47.033 -28.221,-74.133 -76.373,-74.133 C 28.22,-74.133 0,-47.033 0,0"
             style="fill:#231f20;fill-opacity:1;fill-rule:nonzero;stroke:none"
             id="path32" />
        </g>
        <g
           id="g34"
           transform="translate(891.6033,179.6314)">
          <path
             d="m 0,0 c 0,11.422 -6.943,18.365 -21.501,18.365 h -19.262 v -36.73 h 19.262 C -6.943,-18.365 0,-11.423 0,0 m 53.304,0 c 0,-36.283 -27.772,-59.128 -71.446,-59.128 H -40.763 V -97.65 H -93.619 V 59.128 h 75.477 C 25.532,59.128 53.304,36.283 53.304,0"
             style="fill:#231f20;fill-opacity:1;fill-rule:nonzero;stroke:none"
             id="path36" />
        </g>
        <g
           id="g38"
           transform="translate(1092.5027,121.8473)">
          <path
             d="M 0,0 V -39.866 H -130.349 V 116.912 H -2.911 V 77.045 H -78.389 V 58.68 h 66.295 V 20.605 h -66.295 l 0,-20.605 z"
             style="fill:#231f20;fill-opacity:1;fill-rule:nonzero;stroke:none"
             id="path40" />
        </g>
        <g
           id="g42"
           transform="translate(1177.6042,160.3697)">
          <path
             d="m 0,0 c 0,45.689 34.715,79.509 81.301,79.509 22.173,0 42.105,-7.167 55.767,-21.725 l -7.167,-7.39 C 116.464,63.607 100.114,68.982 81.748,68.982 41.658,68.982 11.422,39.419 11.422,0 c 0,-39.418 30.236,-68.982 70.326,-68.982 18.366,0 34.716,5.599 48.153,18.813 l 7.167,-7.39 C 123.406,-72.117 103.474,-79.509 81.301,-79.509 34.715,-79.509 0,-45.689 0,0"
             style="fill:#231f20;fill-opacity:1;fill-rule:nonzero;stroke:none"
             id="path44" />
        </g>
        <g
           id="g46"
           transform="translate(1486.0066,160.3697)">
          <path
             d="m 0,0 c 0,39.643 -30.012,68.982 -69.878,68.982 -40.091,0 -70.102,-29.339 -70.102,-68.982 0,-39.643 30.011,-68.982 70.102,-68.982 C -30.012,-68.982 0,-39.643 0,0 m -151.402,0 c 0,45.466 34.714,79.509 81.524,79.509 46.586,0 81.524,-33.82 81.524,-79.509 0,-45.689 -34.938,-79.509 -81.524,-79.509 -46.81,0 -81.524,34.044 -81.524,79.509"
             style="fill:#231f20;fill-opacity:1;fill-rule:nonzero;stroke:none"
             id="path48" />
        </g>
        <g
           id="g50"
           transform="translate(1565.0691,228.4566)">
          <path
             d="M 0,0 H -56.44 V 10.303 H 67.862 V 0 H 11.423 V -146.475 H 0 Z"
             style="fill:#231f20;fill-opacity:1;fill-rule:nonzero;stroke:none"
             id="path52" />
        </g>
        <g
           id="g54"
           transform="translate(1746.0349,135.734)">
          <path
             d="M 0,0 -41.21,90.482 -82.196,0 Z m 4.256,-9.631 h -90.932 l -19.932,-44.122 h -12.319 l 72.117,156.778 h 11.423 L 36.731,-53.753 H 24.413 Z"
             style="fill:#231f20;fill-opacity:1;fill-rule:nonzero;stroke:none"
             id="path56" />
        </g>
        <g
           id="g58"
           transform="translate(1811.2068,238.7594)">
          <path
             d="m 0,0 h 11.422 v -146.476 h 90.26 v -10.302 H 0 Z"
             style="fill:#231f20;fill-opacity:1;fill-rule:nonzero;stroke:none"
             id="path60" />
        </g>
        <g
           id="g62"
           transform="translate(1642.6649,929.952)">
          <path
             d="m 0,0 c -5.101,-23.227 -24.898,-53.816 -32.766,-65.476 -67.854,-100.546 -159.974,-183.657 -279.733,-244.175 -179.313,-90.612 -322.269,-67.032 -338.436,116.386 -19.487,221.108 160.386,502.376 405.824,609.712 30.623,13.391 112.126,45.557 142.412,25.028 28.132,-19.069 1.399,-81.194 -9.917,-104.968 -3.173,-6.668 0.761,-14.002 8.771,-16.333 8.008,-2.33 17.119,1.201 20.295,7.872 17.52,36.813 44.346,104.322 1.349,133.469 -44.378,30.08 -131.63,-2.831 -176.721,-22.55 -231.965,-101.441 -406.7,-348.785 -423.405,-566.263 -36.232,21.146 -108.929,3.885 -143.982,-5.183 -101.815,-26.344 -200.391,-62.243 -296.367,-102.747 -7,-2.954 -10.072,-10.585 -6.837,-16.972 3.235,-6.391 11.595,-9.196 18.591,-6.242 94.642,39.945 191.853,75.375 292.253,101.352 24.444,6.324 106.978,25.906 125.423,4.922 16.024,-18.229 -21.628,-70.987 -33.319,-86.658 -69.505,-93.147 -159.021,-166.488 -271.085,-214.55 -167.791,-71.962 -292.87,-34.008 -290.619,150.104 2.713,221.945 188.297,483.524 416.45,565.417 28.466,10.218 103.914,33.953 129.004,10.459 23.305,-21.824 -6.121,-80.917 -18.347,-103.422 -3.428,-6.311 -0.593,-14.006 6.324,-17.138 6.915,-3.13 15.343,-0.542 18.774,5.773 18.931,34.847 48.927,99.287 13.307,132.644 -36.764,34.426 -117.394,10.532 -159.31,-4.513 -238.799,-85.713 -431.377,-356.566 -434.218,-588.933 -2.485,-203.316 143.538,-253.745 330.55,-173.541 116.608,50.012 209.992,126.367 282.32,223.303 6.923,9.277 15.946,21.799 23.847,35.564 27.579,-183.314 190.11,-210.975 382.668,-113.671 124.615,62.973 220.73,149.52 291.341,254.155 12.372,18.333 31.476,48.274 36.546,75.393 C 20.606,-1.955 10.277,-1.189 0,0"
             style="fill:#231f20;fill-opacity:1;fill-rule:nonzero;stroke:none"
             id="path64" />
        </g>
      </g>
    </g>
  </g>
</svg>
